/* XPM */
static const char * icon_xpm[] = {
"8 8 3 1",
" 	c None",
".	c #FFC928",
"+	c #000000",
" ...... ",
"..+..+..",
"..+..+..",
"........",
"..++++..",
".+....+.",
"........",
" ...... "};
